<svg xmlns="http://www.w3.org/2000/svg" xmlns:xlink="http://www.w3.org/1999/xlink" width="2000" zoomAndPan="magnify" viewBox="0 0 1500 1499.999933" height="2000" preserveAspectRatio="xMidYMid meet" version="1.0"><defs><clipPath id="a75c116a6b"><path d="M 262 348 L 1231 348 L 1231 1202 L 262 1202 Z M 262 348 " clip-rule="nonzero"/></clipPath><clipPath id="6ab6e0d3fe"><path d="M 182.132812 337.570312 L 1200.378906 211.683594 L 1317.894531 1162.195312 L 299.648438 1288.085938 Z M 182.132812 337.570312 " clip-rule="nonzero"/></clipPath><clipPath id="03640c6f1b"><path d="M 182.132812 337.570312 L 1200.378906 211.683594 L 1317.894531 1162.195312 L 299.648438 1288.085938 Z M 182.132812 337.570312 " clip-rule="nonzero"/></clipPath><clipPath id="f592a8812d"><path d="M 469 280 L 997 280 L 997 642 L 469 642 Z M 469 280 " clip-rule="nonzero"/></clipPath><clipPath id="6ae8ee488b"><path d="M 182.132812 337.570312 L 1200.378906 211.683594 L 1317.894531 1162.195312 L 299.648438 1288.085938 Z M 182.132812 337.570312 " clip-rule="nonzero"/></clipPath><clipPath id="0cce801104"><path d="M 182.132812 337.570312 L 1200.378906 211.683594 L 1317.894531 1162.195312 L 299.648438 1288.085938 Z M 182.132812 337.570312 " clip-rule="nonzero"/></clipPath></defs><g clip-path="url(#a75c116a6b)"><g clip-path="url(#6ab6e0d3fe)"><g clip-path="url(#03640c6f1b)"><path fill="#dc2229" d="M 1229.832031 712.09375 C 1220.777344 893.757812 1183.5 1179.035156 826.824219 1200.152344 C 470.128906 1221.109375 319.753906 1052.261719 275.222656 887.234375 C 230.507812 722.0625 292.03125 407.199219 642.328125 353.058594 C 642.328125 353.058594 904.488281 330.824219 1004.386719 384.78125 C 1104.105469 438.597656 1238.886719 530.429688 1229.832031 712.09375 Z M 1229.832031 712.09375 " fill-opacity="1" fill-rule="nonzero"/></g></g></g><g clip-path="url(#f592a8812d)"><g clip-path="url(#6ae8ee488b)"><g clip-path="url(#0cce801104)"><path fill="#15c827" d="M 994.082031 399.679688 L 822.824219 496.027344 L 994.734375 592.125 C 996.148438 592.9375 996.851562 594.65625 996.222656 596.210938 C 995.714844 597.421875 994.664062 598.207031 993.535156 598.347656 C 993.210938 598.386719 992.726562 598.449219 992.382812 598.328125 L 732.9375 538.980469 L 521.664062 640.929688 C 520.105469 641.613281 518.410156 641.167969 517.421875 639.8125 C 516.433594 638.457031 516.699219 636.621094 517.871094 635.488281 L 649.488281 511.875 L 471.753906 480.175781 C 470.074219 479.890625 468.90625 478.394531 469.007812 476.578125 C 469.132812 474.921875 470.589844 473.425781 472.40625 473.53125 L 663.28125 472.089844 L 568.09375 326.128906 C 567.105469 324.773438 567.371094 322.933594 568.703125 321.785156 C 569.878906 320.65625 571.835938 320.578125 573.128906 321.730469 L 678.597656 410.125 C 678.179688 406.730469 677.515625 402.707031 676.835938 398.523438 C 664.335938 318.660156 663.265625 288.757812 672.566406 284.324219 C 693.652344 274.332031 706.304688 285.078125 711.03125 315.347656 C 713.898438 333.214844 716.773438 359.121094 719.265625 381.953125 C 721.582031 403.332031 723.917969 423.5625 725.601562 433.199219 C 726.222656 436.898438 727.574219 441.164062 729.351562 440.945312 C 737.757812 439.90625 761.5 408.902344 781.132812 381.855469 C 828.578125 316.902344 847.730469 303.207031 848.480469 302.625 C 849.691406 301.816406 851.328125 301.777344 852.601562 302.769531 C 853.691406 303.621094 854.214844 305.195312 853.726562 306.570312 L 800.839844 450.980469 L 991.503906 393.433594 C 993.082031 392.910156 995 393.820312 995.683594 395.378906 C 996.390625 397.097656 995.621094 398.832031 994.082031 399.679688 Z M 994.082031 399.679688 " fill-opacity="1" fill-rule="nonzero"/></g></g></g></svg>