<svg width="652" height="652" viewBox="0 0 652 652" fill="none" xmlns="http://www.w3.org/2000/svg">
<path d="M326 0L362.765 46.7457L410.375 11.1082L433.788 65.7764L489 43.6757L497.466 102.541L556.517 95.4832L549.459 154.534L608.324 163L586.224 218.212L640.892 241.625L605.254 289.235L652 326L605.254 362.765L640.892 410.375L586.224 433.788L608.324 489L549.459 497.466L556.517 556.517L497.466 549.459L489 608.324L433.788 586.224L410.375 640.892L362.765 605.254L326 652L289.235 605.254L241.625 640.892L218.212 586.224L163 608.324L154.534 549.459L95.4832 556.517L102.541 497.466L43.6757 489L65.7764 433.788L11.1082 410.375L46.7457 362.765L0 326L46.7457 289.235L11.1082 241.625L65.7764 218.212L43.6757 163L102.541 154.534L95.4832 95.4832L154.534 102.541L163 43.6757L218.212 65.7764L241.625 11.1082L289.235 46.7457L326 0Z" fill="#FFF200"/>
<g filter="url(#filter0_n_9_39)">
<path d="M326 0L362.765 46.7457L410.375 11.1082L433.788 65.7764L489 43.6757L497.466 102.541L556.517 95.4832L549.459 154.534L608.324 163L586.224 218.212L640.892 241.625L605.254 289.235L652 326L605.254 362.765L640.892 410.375L586.224 433.788L608.324 489L549.459 497.466L556.517 556.517L497.466 549.459L489 608.324L433.788 586.224L410.375 640.892L362.765 605.254L326 652L289.235 605.254L241.625 640.892L218.212 586.224L163 608.324L154.534 549.459L95.4832 556.517L102.541 497.466L43.6757 489L65.7764 433.788L11.1082 410.375L46.7457 362.765L0 326L46.7457 289.235L11.1082 241.625L65.7764 218.212L43.6757 163L102.541 154.534L95.4832 95.4832L154.534 102.541L163 43.6757L218.212 65.7764L241.625 11.1082L289.235 46.7457L326 0Z" fill="#FFF200"/>
</g>
<path d="M144.966 474.986L138.067 467.363L169.695 438.741L176.594 446.364L144.966 474.986ZM179.375 474.771L176.551 478.355C175.056 480.253 174.031 482.058 173.478 483.771C172.954 485.479 172.895 487.051 173.303 488.487C173.723 489.905 174.613 491.15 175.971 492.22C177.198 493.187 178.452 493.75 179.732 493.91C181.028 494.082 182.273 493.883 183.466 493.311C184.675 492.752 185.753 491.89 186.697 490.725L194.38 496.778C194.251 496.942 194.122 497.105 193.993 497.269C193.865 497.433 193.736 497.596 193.607 497.76C191.75 500.117 189.53 501.722 186.946 502.578C184.392 503.43 181.691 503.543 178.842 502.916C176.023 502.286 173.288 500.927 170.637 498.838C167.528 496.389 165.389 493.683 164.222 490.721C163.068 487.743 162.841 484.647 163.543 481.433C164.245 478.22 165.853 475.018 168.367 471.827L171.152 468.292C173.679 465.085 176.423 462.764 179.383 461.33C182.355 459.879 185.418 459.375 188.571 459.817C191.737 460.242 194.874 461.68 197.984 464.13C199.98 465.703 201.579 467.427 202.781 469.302C204.011 471.173 204.807 473.126 205.167 475.16C205.556 477.191 205.506 479.207 205.016 481.208C204.527 483.21 203.567 485.119 202.136 486.935C202.007 487.099 201.878 487.262 201.749 487.426C201.633 487.573 201.517 487.721 201.401 487.868L193.718 481.814C194.655 480.591 195.261 479.317 195.534 477.994C195.837 476.668 195.759 475.386 195.301 474.15C194.872 472.91 194.043 471.807 192.816 470.84C191.458 469.77 190.033 469.204 188.543 469.144C187.052 469.083 185.531 469.516 183.979 470.442C182.444 471.381 180.909 472.824 179.375 474.771ZM232.762 508.304C233.83 506.089 234.398 504.073 234.465 502.255C234.56 500.428 234.216 498.862 233.434 497.56C232.66 496.238 231.504 495.206 229.966 494.464C228.446 493.731 226.918 493.469 225.384 493.677C223.877 493.875 222.429 494.576 221.039 495.779C219.677 496.973 218.462 498.676 217.394 500.891L215.167 505.507C214.09 507.74 213.513 509.751 213.436 511.541C213.378 513.341 213.74 514.891 214.523 516.194C215.333 517.487 216.498 518.5 218.018 519.233C219.557 519.976 221.075 520.257 222.572 520.077C224.079 519.879 225.509 519.192 226.862 518.017C228.234 516.852 229.458 515.153 230.535 512.92L232.762 508.304ZM239.978 517.44C238.24 521.042 236.062 523.831 233.444 525.807C230.845 527.791 227.925 528.881 224.685 529.076C221.445 529.271 218.015 528.495 214.393 526.748C210.79 525.011 208.057 522.813 206.193 520.156C204.329 517.499 203.355 514.531 203.271 511.253C203.187 507.974 204.014 504.533 205.752 500.93L207.91 496.455C209.666 492.815 211.862 489.988 214.499 487.975C217.135 485.962 220.073 484.858 223.313 484.663C226.581 484.458 230.016 485.225 233.619 486.963C237.24 488.71 239.965 490.926 241.792 493.611C243.647 496.287 244.598 499.279 244.645 502.586C244.72 505.883 243.884 509.343 242.137 512.964L239.978 517.44ZM257.404 542.769L248.155 540.599L257.899 499.07L265.839 500.933L276.783 529.533L277.118 529.611L282.907 504.938L292.156 507.108L282.412 548.636L274.563 546.794L263.585 517.93L263.25 517.851L257.404 542.769ZM347.666 527.83L348.3 532.349C348.636 534.742 349.231 536.731 350.084 538.315C350.955 539.875 352.05 541.005 353.368 541.704C354.684 542.382 356.198 542.6 357.91 542.36C359.457 542.143 360.731 541.627 361.732 540.814C362.753 539.997 363.47 538.96 363.883 537.703C364.316 536.443 364.439 535.069 364.251 533.581L373.937 532.221C373.966 532.427 373.995 532.634 374.024 532.84C374.053 533.046 374.082 533.253 374.111 533.459C374.528 536.43 374.152 539.144 372.982 541.601C371.83 544.035 370.043 546.063 367.62 547.687C365.215 549.287 362.341 550.321 358.999 550.79C355.079 551.341 351.646 551.013 348.699 549.806C345.75 548.579 343.358 546.601 341.523 543.871C339.689 541.141 338.489 537.765 337.924 533.742L337.299 529.286C336.731 525.242 336.953 521.655 337.966 518.526C338.975 515.376 340.73 512.815 343.23 510.845C345.728 508.853 348.936 507.582 352.856 507.032C355.373 506.679 357.724 506.717 359.909 507.146C362.112 507.552 364.072 508.329 365.79 509.476C367.526 510.6 368.947 512.031 370.053 513.769C371.16 515.507 371.874 517.521 372.195 519.811C372.224 520.018 372.253 520.224 372.282 520.43C372.308 520.616 372.334 520.802 372.36 520.987L362.674 522.347C362.439 520.823 361.939 519.505 361.172 518.392C360.424 517.256 359.445 516.426 358.235 515.902C357.043 515.354 355.674 515.188 354.126 515.405C352.414 515.646 351.02 516.283 349.945 517.318C348.87 518.352 348.13 519.75 347.725 521.511C347.341 523.269 347.321 525.375 347.666 527.83ZM398.766 541.793L389.09 545.267L387.643 500.463L399.408 496.239L426.706 531.759L416.442 535.445L410.497 527.121L398.056 531.588L398.766 541.793ZM396.572 507.019L396.131 507.178L397.347 523.973L406.259 520.773L396.572 507.019ZM448.596 519.952L440.968 524.96L417.558 489.301L426.414 483.487L448.875 497.713L449.162 497.525L445.066 471.242L453.844 465.48L477.254 501.139L469.547 506.198L455.021 484.071L454.629 484.328L458.09 506.056L453.048 509.366L434.436 497.585L434.07 497.825L448.596 519.952ZM474.334 446.804C476.618 444.435 479.007 442.932 481.5 442.298C483.993 441.633 486.44 441.677 488.84 442.429C491.24 443.151 493.408 444.445 495.342 446.31C497.307 448.205 498.694 450.338 499.504 452.71C500.298 455.068 500.387 457.497 499.769 459.998C499.152 462.5 497.701 464.935 495.416 467.305L490.124 472.794L499.662 481.991L492.548 489.369L461.84 459.762L474.334 446.804ZM488.12 453.802C486.515 452.254 484.851 451.519 483.129 451.594C481.421 451.655 479.829 452.45 478.354 453.98L474.602 457.872L484.545 467.459L487.474 464.422C488.63 463.222 489.471 462.035 489.994 460.862C490.503 459.674 490.614 458.493 490.328 457.32C490.055 456.131 489.319 454.959 488.12 453.802Z" fill="black"/>
<path d="M103.891 342.766H115.375C115.562 343.922 115.984 345 116.641 346C117.297 347 118.156 347.875 119.219 348.625C120.281 349.344 121.531 349.906 122.969 350.312C124.438 350.719 126.062 350.922 127.844 350.922C130.344 350.922 132.438 350.578 134.125 349.891C135.844 349.172 137.125 348.188 137.969 346.938C138.844 345.656 139.281 344.188 139.281 342.531C139.281 341.125 138.938 339.938 138.25 338.969C137.594 337.969 136.578 337.125 135.203 336.438C133.828 335.719 132.078 335.125 129.953 334.656L120.625 332.453C117.5 331.734 114.797 330.656 112.516 329.219C110.234 327.781 108.469 325.953 107.219 323.734C105.969 321.484 105.344 318.844 105.344 315.812C105.344 312.125 106.297 308.922 108.203 306.203C110.109 303.484 112.75 301.375 116.125 299.875C119.5 298.344 123.391 297.578 127.797 297.578C132.391 297.578 136.312 298.359 139.562 299.922C142.812 301.453 145.328 303.516 147.109 306.109C148.922 308.672 149.922 311.5 150.109 314.594H138.859C138.641 313.125 138.047 311.812 137.078 310.656C136.141 309.5 134.891 308.594 133.328 307.938C131.766 307.25 129.906 306.906 127.75 306.906C124.469 306.906 121.891 307.672 120.016 309.203C118.141 310.734 117.203 312.672 117.203 315.016C117.203 316.859 117.906 318.375 119.312 319.562C120.75 320.75 122.797 321.641 125.453 322.234L134.828 324.391C138.109 325.141 140.953 326.203 143.359 327.578C145.797 328.953 147.688 330.766 149.031 333.016C150.375 335.266 151.047 338.078 151.047 341.453C151.047 345.172 150.109 348.453 148.234 351.297C146.391 354.141 143.688 356.359 140.125 357.953C136.562 359.547 132.234 360.344 127.141 360.344C123.328 360.344 120 359.891 117.156 358.984C114.312 358.047 111.938 356.766 110.031 355.141C108.125 353.516 106.656 351.641 105.625 349.516C104.625 347.391 104.047 345.141 103.891 342.766ZM124.609 367.094V290.828H130.047V367.094H124.609Z" fill="black"/>
<path d="M176.497 399V376.783L216.048 324.171C222.477 315.626 227.441 308.302 230.94 302.198C234.521 296.095 237.003 290.479 238.387 285.353C239.852 280.226 240.584 274.936 240.584 269.483V269.239C240.584 264.519 239.892 260.45 238.509 257.032C237.207 253.533 235.254 250.888 232.649 249.098C230.045 247.226 226.831 246.29 223.006 246.29C218.855 246.29 215.356 247.47 212.508 249.83C209.741 252.19 207.666 255.486 206.282 259.718C204.899 263.868 204.126 268.67 203.963 274.122V279.859H174.788V273.634C174.951 262.973 176.945 253.655 180.77 245.68C184.676 237.704 190.291 231.52 197.615 227.125C204.939 222.649 213.769 220.411 224.104 220.411C234.033 220.411 242.496 222.405 249.495 226.393C256.494 230.38 261.865 235.995 265.608 243.238C269.352 250.4 271.224 258.701 271.224 268.141V268.385C271.224 275.872 270.044 283.074 267.684 289.991C265.324 296.909 261.702 304.314 256.819 312.208C251.937 320.021 245.67 329.013 238.021 339.186L205.794 380.445L212.63 364.088V380.445L205.794 372.755H272.2V399H176.497ZM338.792 401.441C327.073 401.441 317.145 398.064 309.007 391.31C300.95 384.474 294.806 374.382 290.574 361.036C286.342 347.608 284.227 330.966 284.227 311.109V310.743C284.227 290.968 286.342 274.366 290.574 260.938C294.806 247.511 300.95 237.42 309.007 230.665C317.145 223.829 327.073 220.411 338.792 220.411C350.674 220.411 360.643 223.829 368.699 230.665C376.756 237.42 382.859 247.511 387.01 260.938C391.16 274.366 393.235 290.968 393.235 310.743V311.109C393.235 330.966 391.16 347.608 387.01 361.036C382.859 374.382 376.756 384.474 368.699 391.31C360.643 398.064 350.674 401.441 338.792 401.441ZM338.792 375.074C343.675 375.074 347.825 372.796 351.243 368.238C354.661 363.681 357.265 356.682 359.056 347.242C360.846 337.802 361.741 325.758 361.741 311.109V310.865C361.741 296.135 360.846 284.05 359.056 274.61C357.265 265.17 354.661 258.172 351.243 253.614C347.825 249.057 343.675 246.778 338.792 246.778C333.746 246.778 329.515 249.098 326.097 253.736C322.76 258.294 320.197 265.292 318.406 274.732C316.697 284.173 315.843 296.217 315.843 310.865V311.109C315.843 325.758 316.697 337.802 318.406 347.242C320.197 356.682 322.76 363.681 326.097 368.238C329.515 372.796 333.746 375.074 338.792 375.074Z" fill="black"/>
<path d="M410.577 311V297.875L430.827 272.188C434.161 267.896 436.723 264.25 438.515 261.25C440.307 258.208 441.557 255.458 442.265 253C442.973 250.5 443.327 247.917 443.327 245.25V245.125C443.327 242.958 443.036 241.083 442.452 239.5C441.869 237.875 440.973 236.625 439.765 235.75C438.557 234.833 437.077 234.375 435.327 234.375C433.411 234.375 431.807 234.938 430.515 236.062C429.223 237.146 428.265 238.667 427.64 240.625C427.015 242.583 426.661 244.833 426.577 247.375V250.5H409.515L409.577 247.188C409.619 241.688 410.682 236.854 412.765 232.688C414.848 228.521 417.848 225.292 421.765 223C425.682 220.667 430.432 219.5 436.015 219.5C441.39 219.5 445.952 220.562 449.702 222.688C453.452 224.812 456.307 227.771 458.265 231.562C460.265 235.312 461.265 239.667 461.265 244.625V244.75C461.265 248.625 460.64 252.333 459.39 255.875C458.182 259.417 456.327 263.104 453.827 266.938C451.327 270.771 448.161 275.104 444.327 279.938L427.577 300.438L431.765 290.562V300.438L427.577 295.875H461.765V311H410.577ZM498.798 311V294.312H466.048V279.188C466.923 276.438 468.027 273.354 469.36 269.938C470.693 266.479 472.173 262.812 473.798 258.938C475.423 255.021 477.131 250.958 478.923 246.75C480.756 242.5 482.589 238.208 484.423 233.875C486.298 229.5 488.11 225.146 489.86 220.812H516.173V279.188H524.298V294.312H516.173V311H498.798ZM481.36 279.75H499.298V234.25H498.86C497.652 237.542 496.381 240.854 495.048 244.188C493.714 247.521 492.381 250.812 491.048 254.062C489.714 257.312 488.443 260.458 487.235 263.5C486.027 266.5 484.902 269.333 483.86 272C482.86 274.625 482.027 277.042 481.36 279.25V279.75Z" fill="black"/>
<path d="M182.072 179.287L189.608 173.052C190.079 173.556 190.656 173.943 191.341 174.215C192.025 174.487 192.782 174.618 193.612 174.607C194.458 174.584 195.335 174.386 196.243 174.013C197.167 173.627 198.119 173.029 199.098 172.219C200.302 171.223 201.165 170.239 201.686 169.267C202.223 168.282 202.46 167.343 202.396 166.449C202.32 165.539 201.976 164.715 201.365 163.977C200.515 162.949 199.447 162.508 198.161 162.652C196.891 162.784 195.313 163.345 193.429 164.336L187.945 167.169C186.058 168.189 184.158 168.882 182.244 169.249C180.317 169.599 178.436 169.465 176.6 168.848C174.764 168.23 173.056 166.966 171.476 165.056C169.67 162.873 168.698 160.554 168.561 158.1C168.423 155.645 168.992 153.228 170.267 150.848C171.53 148.451 173.381 146.244 175.821 144.226C178.47 142.035 181.105 140.612 183.727 139.957C186.352 139.273 188.794 139.268 191.053 139.94C193.313 140.612 195.227 141.881 196.797 143.746L189.501 149.781C188.882 149.131 188.119 148.667 187.213 148.388C186.307 148.11 185.302 148.104 184.197 148.369C183.094 148.606 181.949 149.215 180.761 150.198C179.188 151.499 178.247 152.845 177.937 154.236C177.631 155.598 177.929 156.825 178.832 157.917C179.563 158.8 180.537 159.21 181.757 159.148C182.992 159.072 184.437 158.58 186.091 157.671L191.652 154.734C193.493 153.725 195.382 153.001 197.317 152.562C199.253 152.124 201.169 152.202 203.066 152.795C204.966 153.36 206.772 154.677 208.485 156.748C210.265 158.899 211.282 161.208 211.537 163.673C211.792 166.139 211.282 168.643 210.005 171.186C208.716 173.713 206.642 176.158 203.785 178.522C201.28 180.593 198.932 182.036 196.739 182.849C194.549 183.634 192.528 183.953 190.678 183.807C188.83 183.633 187.183 183.129 185.738 182.297C184.292 181.465 183.07 180.462 182.072 179.287ZM230.946 158.412L222.714 162.351L204.303 123.873L213.859 119.3L234.207 136.412L234.517 136.264L233.986 109.67L243.457 105.138L261.869 143.616L253.553 147.595L242.129 123.719L241.706 123.921L242.219 145.916L236.778 148.52L219.916 134.347L219.521 134.536L230.946 158.412ZM285.827 129.107C288.037 128.684 289.708 127.663 290.84 126.046C291.969 124.409 292.28 122.27 291.774 119.631L286.751 93.4203L296.787 91.4968L302.081 119.119C302.654 122.106 302.452 124.871 301.475 127.413C300.515 129.93 298.847 132.074 296.471 133.844C294.092 135.595 291.081 136.819 287.439 137.517C283.797 138.215 280.536 138.193 277.658 137.45C274.795 136.684 272.443 135.31 270.6 133.33C268.773 131.326 267.573 128.83 267.001 125.842L261.707 98.2202L271.774 96.2908L276.797 122.501C277.307 125.161 278.387 127.033 280.037 128.117C281.687 129.201 283.617 129.531 285.827 129.107ZM342.313 132.393L332.061 131.624L335.253 89.0872L345.505 89.8566L342.313 132.393ZM367.506 112.92L366.396 117.345C365.808 119.689 365.611 121.755 365.807 123.544C366.028 125.318 366.618 126.776 367.577 127.919C368.541 129.042 369.862 129.813 371.539 130.234C373.055 130.614 374.429 130.615 375.662 130.237C376.915 129.864 377.97 129.173 378.824 128.163C379.699 127.158 380.329 125.931 380.715 124.481L390.202 126.861C390.151 127.063 390.1 127.265 390.05 127.468C389.999 127.67 389.948 127.872 389.898 128.074C389.168 130.984 387.799 133.357 385.791 135.195C383.809 137.017 381.39 138.225 378.535 138.819C375.705 139.398 372.653 139.277 369.38 138.456C365.54 137.492 362.482 135.898 360.205 133.673C357.933 131.428 356.46 128.696 355.786 125.476C355.111 122.257 355.268 118.677 356.257 114.737L357.352 110.372C358.345 106.412 359.899 103.172 362.013 100.652C364.133 98.1121 366.721 96.3987 369.779 95.512C372.842 94.605 376.293 94.6331 380.132 95.5963C382.597 96.2147 384.762 97.1336 386.625 98.3528C388.514 99.557 390.039 101.013 391.199 102.722C392.385 104.416 393.165 106.276 393.537 108.302C393.909 110.329 393.814 112.464 393.251 114.707C393.2 114.909 393.15 115.111 393.099 115.313C393.053 115.495 393.008 115.677 392.962 115.859L383.475 113.478C383.83 111.978 383.861 110.568 383.569 109.249C383.303 107.915 382.707 106.778 381.783 105.837C380.885 104.881 379.678 104.213 378.162 103.833C376.485 103.413 374.954 103.479 373.569 104.034C372.184 104.589 370.973 105.606 369.936 107.086C368.919 108.57 368.109 110.515 367.506 112.92ZM427.692 134.818C428.816 132.632 429.436 130.631 429.55 128.815C429.691 126.99 429.388 125.417 428.639 124.095C427.9 122.754 426.77 121.693 425.251 120.911C423.751 120.139 422.231 119.838 420.691 120.007C419.18 120.166 417.714 120.83 416.294 121.997C414.902 123.155 413.643 124.827 412.519 127.013L410.175 131.571C409.041 133.775 408.412 135.771 408.289 137.559C408.185 139.356 408.507 140.916 409.256 142.238C410.033 143.551 411.172 144.594 412.673 145.366C414.192 146.147 415.702 146.467 417.204 146.326C418.715 146.166 420.162 145.517 421.545 144.377C422.946 143.247 424.214 141.58 425.348 139.375L427.692 134.818ZM434.672 144.136C432.842 147.693 430.593 150.425 427.925 152.333C425.276 154.25 422.329 155.264 419.085 155.376C415.842 155.488 412.432 154.625 408.856 152.786C405.299 150.956 402.623 148.689 400.828 145.985C399.032 143.281 398.135 140.29 398.135 137.01C398.135 133.73 399.05 130.312 400.88 126.755L403.152 122.336C405.001 118.742 407.269 115.973 409.956 114.028C412.643 112.083 415.608 111.055 418.852 110.943C422.124 110.822 425.538 111.676 429.095 113.506C432.671 115.345 435.338 117.63 437.095 120.362C438.881 123.084 439.755 126.099 439.718 129.406C439.708 132.705 438.783 136.142 436.944 139.717L434.672 144.136ZM440.452 170.932L433.156 164.848L460.475 132.088L466.739 137.311L463.708 167.783L463.972 168.003L480.203 148.539L487.499 154.623L460.18 187.383L453.988 182.22L457.107 151.496L456.843 151.276L440.452 170.932Z" fill="black"/>
<defs>
<filter id="filter0_n_9_39" x="0" y="0" width="652" height="652" filterUnits="userSpaceOnUse" color-interpolation-filters="sRGB">
<feFlood flood-opacity="0" result="BackgroundImageFix"/>
<feBlend mode="normal" in="SourceGraphic" in2="BackgroundImageFix" result="shape"/>
<feTurbulence type="fractalNoise" baseFrequency="0.3125 0.3125" stitchTiles="stitch" numOctaves="3" result="noise" seed="7904" />
<feComponentTransfer in="noise" result="coloredNoise1">
<feFuncR type="linear" slope="2" intercept="-0.5" />
<feFuncG type="linear" slope="2" intercept="-0.5" />
<feFuncB type="linear" slope="2" intercept="-0.5" />
<feFuncA type="discrete" tableValues="0 0 0 1 1 1 1 1 1 1 1 1 1 1 1 1 1 1 1 1 1 1 1 1 1 1 1 1 1 1 1 1 1 1 1 1 1 1 1 1 1 1 1 1 1 1 0 0 0 0 0 0 0 0 0 0 0 0 0 0 0 0 0 0 0 0 0 0 0 0 0 0 0 0 0 0 0 0 0 0 0 0 0 0 0 0 0 0 0 0 0 0 0 0 0 0 0 0 0 0 "/>
</feComponentTransfer>
<feComposite operator="in" in2="shape" in="coloredNoise1" result="noise1Clipped" />
<feComponentTransfer in="noise1Clipped" result="color1">
<feFuncA type="table" tableValues="0 0.12" />
</feComponentTransfer>
<feMerge result="effect1_noise_9_39">
<feMergeNode in="shape" />
<feMergeNode in="color1" />
</feMerge>
</filter>
</defs>
</svg>
