<svg width="991" height="812" viewBox="0 0 991 812" fill="none" xmlns="http://www.w3.org/2000/svg">
<g filter="url(#filter0_n_9_40)">
<ellipse cx="500.5" cy="372.747" rx="438.5" ry="337.5" fill="#0922A0"/>
</g>
<path d="M501 70.7476C612.765 70.7476 714.048 104.186 787.449 158.372C860.849 212.557 906.5 287.615 906.5 370.748C906.5 453.88 860.849 528.939 787.449 583.124C714.048 637.309 612.765 670.748 501 670.748C389.235 670.748 287.952 637.309 214.551 583.124C141.151 528.939 95.5 453.88 95.5 370.748C95.5 287.615 141.151 212.557 214.551 158.372C287.952 104.186 389.235 70.7476 501 70.7476Z" stroke="white" stroke-width="5"/>
<path d="M250.904 568.982L253.928 563.149L275.266 557.158C277.878 556.439 279.918 555.768 281.385 555.146C282.851 554.524 283.968 553.864 284.735 553.165C285.521 552.476 286.158 551.662 286.645 550.723L286.674 550.667C287.248 549.558 287.492 548.445 287.404 547.327C287.326 546.19 286.944 545.134 286.258 544.159C285.591 543.194 284.656 542.399 283.454 541.776C282.063 541.055 280.696 540.704 279.352 540.722C278.018 540.722 276.797 541.054 275.69 541.719C274.592 542.366 273.708 543.29 273.037 544.491L272.878 544.73L264.988 540.641L265.105 540.415C266.429 537.86 268.246 535.942 270.554 534.66C272.873 533.36 275.447 532.74 278.275 532.8C281.123 532.87 283.974 533.645 286.83 535.125C289.704 536.615 291.967 538.432 293.621 540.576C295.284 542.701 296.263 544.972 296.559 547.39C296.855 549.807 296.404 552.171 295.206 554.482L295.177 554.538C294.33 556.173 293.241 557.538 291.909 558.636C290.606 559.724 288.87 560.706 286.699 561.583C284.538 562.441 281.724 563.342 278.256 564.285L260.913 568.915L267.147 564.889L264.181 570.609L262.299 566.309L283.968 577.541L280.462 584.304L250.904 568.982ZM316.515 600.718C312.884 599.374 310.093 597.314 308.142 594.539C306.191 591.763 305.124 588.458 304.942 584.623C304.787 580.775 305.55 576.579 307.232 572.035L307.254 571.976C308.944 567.412 311.096 563.73 313.712 560.93C316.347 558.138 319.305 556.334 322.585 555.517C325.873 554.681 329.333 554.935 332.964 556.279C336.595 557.623 339.376 559.679 341.307 562.447C343.266 565.203 344.336 568.498 344.518 572.333C344.7 576.168 343.947 580.368 342.258 584.932L342.236 584.991C340.554 589.536 338.391 593.214 335.748 596.026C333.113 598.818 330.151 600.632 326.864 601.469C323.596 602.312 320.146 602.062 316.515 600.718ZM319.181 593.515C320.967 594.176 322.705 594.142 324.396 593.414C326.087 592.687 327.675 591.323 329.16 589.323C330.664 587.33 331.997 584.766 333.157 581.631L333.179 581.572C334.347 578.417 335.005 575.603 335.153 573.131C335.328 570.646 335.007 568.587 334.191 566.954C333.381 565.3 332.084 564.143 330.298 563.482C328.512 562.821 326.764 562.851 325.053 563.571C323.369 564.279 321.785 565.633 320.3 567.633C318.823 569.613 317.5 572.181 316.333 575.336L316.31 575.395C315.15 578.531 314.482 581.341 314.307 583.825C314.132 586.31 314.449 588.379 315.258 590.032C316.088 591.693 317.395 592.854 319.181 593.515ZM354.316 613.306L355.874 606.924L375.189 596.055C377.558 594.739 379.381 593.605 380.659 592.654C381.937 591.702 382.866 590.796 383.446 589.936C384.047 589.081 384.473 588.14 384.724 587.112L384.739 587.05C385.035 585.837 385.008 584.698 384.658 583.633C384.314 582.547 383.693 581.611 382.795 580.826C381.919 580.045 380.823 579.495 379.507 579.173C377.986 578.802 376.575 578.784 375.273 579.12C373.976 579.435 372.869 580.047 371.95 580.955C371.036 581.843 370.396 582.949 370.028 584.275L369.93 584.545L361.297 582.438L361.357 582.191C362.039 579.396 363.351 577.102 365.291 575.311C367.236 573.499 369.59 572.287 372.353 571.677C375.136 571.071 378.09 571.15 381.214 571.913C384.359 572.68 386.988 573.91 389.102 575.602C391.22 577.274 392.709 579.249 393.568 581.528C394.428 583.807 394.549 586.211 393.932 588.739L393.917 588.801C393.48 590.589 392.745 592.174 391.71 593.555C390.702 594.92 389.247 596.286 387.345 597.651C385.449 598.996 382.927 600.536 379.781 602.273L364.025 610.874L369.13 605.488L367.601 611.747L364.756 608.014L388.466 613.802L386.66 621.202L354.316 613.306ZM428.426 628.485L429.53 620.148L406.939 617.156L407.989 609.227C409.461 607.458 410.935 605.679 412.41 603.89C413.884 602.1 415.358 600.321 416.83 598.552C418.305 596.763 419.768 594.982 421.219 593.211C422.694 591.421 424.169 589.631 425.644 587.842C427.119 586.052 428.592 584.273 430.065 582.504L443.468 584.279L439.564 613.761L445.542 614.552L444.538 622.135L438.56 621.343L437.456 629.681L428.426 628.485ZM416.185 610.921L430.689 612.842L433.718 589.967L433.498 589.938C432.333 591.321 431.179 592.705 430.035 594.09C428.891 595.475 427.737 596.859 426.572 598.241C425.431 599.606 424.276 600.99 423.109 602.393C421.965 603.778 420.81 605.162 419.646 606.545C418.504 607.909 417.362 609.284 416.218 610.669L416.185 610.921ZM491.176 619.315L491.071 611.223L511.635 610.956L511.741 619.048L491.176 619.315ZM561.229 630.586L560.211 624.096L573.858 606.632C575.537 604.506 576.784 602.758 577.597 601.388C578.411 600.018 578.919 598.825 579.124 597.807C579.35 596.787 579.38 595.754 579.217 594.709L579.207 594.646C579.013 593.413 578.55 592.372 577.818 591.523C577.081 590.653 576.148 590.028 575.018 589.649C573.908 589.266 572.685 589.179 571.347 589.389C569.8 589.631 568.49 590.158 567.418 590.969C566.343 591.758 565.556 592.749 565.057 593.941C564.555 595.112 564.39 596.38 564.561 597.745L564.574 598.032L555.795 599.409L555.755 599.158C555.31 596.315 555.638 593.694 556.739 591.294C557.837 588.873 559.544 586.849 561.859 585.222C564.195 583.592 566.952 582.528 570.129 582.03C573.327 581.529 576.227 581.652 578.829 582.401C581.427 583.129 583.562 584.379 585.232 586.152C586.902 587.925 587.939 590.097 588.342 592.668L588.351 592.73C588.637 594.549 588.568 596.295 588.144 597.967C587.739 599.616 586.921 601.436 585.692 603.428C584.459 605.399 582.724 607.791 580.488 610.605L569.254 624.606L571.894 617.67L572.892 624.035L568.829 621.685L592.941 617.904L594.121 625.43L561.229 630.586ZM632.679 617.657C628.943 618.675 625.475 618.623 622.274 617.5C619.073 616.377 616.283 614.309 613.904 611.295C611.54 608.255 609.721 604.398 608.446 599.723L608.429 599.662C607.149 594.966 606.759 590.72 607.258 586.921C607.778 583.117 609.135 579.928 611.329 577.357C613.517 574.764 616.479 572.959 620.214 571.94C623.95 570.922 627.408 570.977 630.589 572.105C633.784 573.208 636.572 575.266 638.95 578.28C641.329 581.294 643.159 585.148 644.439 589.843L644.456 589.905C645.73 594.579 646.11 598.829 645.596 602.654C645.076 606.458 643.722 609.656 641.534 612.249C639.366 614.835 636.415 616.638 632.679 617.657ZM630.659 610.246C632.496 609.746 633.891 608.707 634.843 607.132C635.795 605.556 636.293 603.523 636.338 601.033C636.403 598.537 635.996 595.676 635.116 592.451L635.1 592.39C634.215 589.144 633.114 586.473 631.796 584.375C630.494 582.252 629.035 580.764 627.421 579.91C625.801 579.036 624.072 578.849 622.235 579.35C620.397 579.851 618.993 580.892 618.02 582.473C617.062 584.028 616.561 586.051 616.516 588.542C616.466 591.012 616.884 593.869 617.769 597.115L617.785 597.176C618.665 600.402 619.756 603.076 621.058 605.199C622.361 607.322 623.822 608.821 625.442 609.695C627.083 610.564 628.821 610.747 630.659 610.246ZM670.797 605.885L668.339 599.793L677.686 579.697C678.842 577.246 679.661 575.261 680.144 573.743C680.627 572.225 680.853 570.947 680.822 569.91C680.811 568.865 680.608 567.852 680.212 566.871L680.188 566.812C679.721 565.654 679.035 564.745 678.129 564.083C677.216 563.402 676.165 563.005 674.979 562.89C673.811 562.768 672.6 562.96 671.344 563.467C669.892 564.053 668.735 564.862 667.874 565.894C667.004 566.906 666.462 568.049 666.245 569.323C666.021 570.577 666.147 571.849 666.622 573.141L666.7 573.417L658.458 576.742L658.363 576.507C657.287 573.838 657.014 571.21 657.544 568.623C658.067 566.017 659.272 563.66 661.16 561.552C663.067 559.437 665.512 557.777 668.494 556.574C671.497 555.363 674.35 554.828 677.053 554.969C679.749 555.091 682.111 555.826 684.138 557.176C686.166 558.525 687.666 560.407 688.64 562.821L688.664 562.879C689.352 564.586 689.68 566.303 689.645 568.028C689.623 569.725 689.238 571.683 688.49 573.901C687.734 576.1 686.585 578.822 685.043 582.068L677.264 598.246L678.267 590.893L680.678 596.868L676.189 595.496L698.823 586.365L701.673 593.429L670.797 605.885ZM737.173 577.389C734.244 578.958 731.4 579.809 728.639 579.943C725.879 580.077 723.376 579.593 721.13 578.492C718.884 577.39 717.078 575.766 715.711 573.617L715.458 573.212L723.265 569.032L723.425 569.198C724.17 570.095 725.088 570.78 726.181 571.251C727.292 571.712 728.49 571.91 729.776 571.846C731.051 571.763 732.333 571.377 733.62 570.687C735.093 569.898 736.225 568.896 737.014 567.682C737.812 566.438 738.234 565.096 738.279 563.656C738.342 562.206 737.99 560.763 737.22 559.327L737.19 559.271C736.431 557.853 735.436 556.778 734.203 556.046C732.98 555.285 731.634 554.901 730.167 554.895C728.718 554.879 727.266 555.26 725.812 556.039C724.786 556.589 723.914 557.247 723.197 558.015C722.471 558.765 721.912 559.604 721.521 560.533C721.299 561.06 721.121 561.6 720.985 562.153C720.849 562.705 720.784 563.256 720.789 563.805L713.431 567.746L702.587 543.058L728.356 529.259L731.952 535.974L712.898 546.178L718.002 558.061L718.17 557.972C718.24 556.758 718.553 555.594 719.108 554.481C719.673 553.338 720.438 552.28 721.405 551.307C722.39 550.323 723.564 549.467 724.925 548.737C727.499 547.359 730.08 546.709 732.666 546.788C735.243 546.849 737.629 547.563 739.826 548.931C742.023 550.298 743.8 552.251 745.159 554.788L745.189 554.844C746.697 557.66 747.358 560.486 747.173 563.322C747.006 566.147 746.067 568.786 744.356 571.239C742.645 573.691 740.25 575.741 737.173 577.389Z" fill="white"/>
<path d="M354.005 191.569C349.296 193.279 344.93 194.086 340.905 193.989C336.898 193.855 333.419 192.858 330.469 191C327.508 189.114 325.239 186.384 323.661 182.812L323.38 182.166L335.152 177.891L335.4 178.315C336.235 179.757 337.409 180.843 338.92 181.572C340.449 182.263 342.224 182.601 344.244 182.584C346.254 182.54 348.388 182.108 350.646 181.288C352.959 180.448 354.832 179.425 356.264 178.219C357.714 176.976 358.688 175.625 359.187 174.166C359.703 172.669 359.686 171.163 359.136 169.649L359.121 169.608C358.391 167.597 357.022 166.318 355.015 165.769C353.026 165.182 350.032 165.178 346.034 165.757L339.306 166.798C333.01 167.744 327.866 167.353 323.872 165.624C319.878 163.895 317.066 160.786 315.436 156.298L315.421 156.256C314.101 152.621 313.928 149.1 314.903 145.691C315.868 142.255 317.788 139.173 320.663 136.446C323.528 133.692 327.163 131.514 331.569 129.914C336.168 128.244 340.393 127.52 344.245 127.742C348.125 127.954 351.476 129.028 354.298 130.964C357.121 132.9 359.258 135.568 360.711 138.968L361.037 139.738L349.265 144.013L349.044 143.532C348.254 142.042 347.177 140.922 345.813 140.17C344.439 139.391 342.844 138.989 341.026 138.963C339.237 138.927 337.309 139.284 335.244 140.034C333.124 140.804 331.407 141.786 330.095 142.979C328.773 144.145 327.894 145.415 327.458 146.789C327.049 148.153 327.105 149.551 327.625 150.983L327.64 151.024C328.32 152.897 329.669 154.121 331.686 154.698C333.703 155.274 336.544 155.287 340.209 154.735L346.993 153.721C351.451 153.037 355.281 152.94 358.482 153.429C361.683 153.919 364.322 155.049 366.399 156.819C368.493 158.552 370.105 160.975 371.235 164.086L371.25 164.128C372.64 167.955 372.882 171.623 371.974 175.132C371.084 178.604 369.115 181.765 366.068 184.617C363.038 187.432 359.017 189.749 354.005 191.569ZM390.16 177.731L379.466 115.226L394.583 112.64L420.028 154.52L420.288 154.476L430.362 106.519L445.479 103.932L456.173 166.437L444.521 168.431L437.288 126.154L431.224 127.192L441.141 106.458L427.281 171.38L419.051 172.788L384.397 116.166L400.643 132.424L394.579 133.461L401.812 175.738L390.16 177.731ZM498.161 165.522C492.742 165.485 488.046 164.471 484.076 162.481C480.134 160.491 477.077 157.73 474.904 154.2C472.76 150.64 471.705 146.516 471.737 141.829L472.019 100.829L485.29 100.92L485.016 140.734C484.998 143.458 485.494 145.835 486.505 147.863C487.546 149.863 489.044 151.426 491 152.552C492.984 153.679 495.397 154.253 498.239 154.272C501.081 154.292 503.487 153.752 505.457 152.652C507.457 151.552 508.976 150.01 510.016 148.025C511.055 146.011 511.584 143.641 511.603 140.917L511.877 101.103L525.148 101.195L524.866 142.195C524.833 146.882 523.721 150.991 521.529 154.521C519.366 158.021 516.286 160.739 512.288 162.675C508.319 164.61 503.61 165.56 498.161 165.522ZM568.682 168.51L580.489 106.206L593.528 108.677L581.721 170.981L568.682 168.51ZM600.169 174.799L616.824 113.612L629.629 117.098L612.975 178.285L600.169 174.799ZM630.329 183.394L653.118 124.217L692.323 139.315L688.391 149.526L661.57 139.198L656.106 153.387L681.409 163.131L677.682 172.809L652.379 163.065L646.646 177.952L673.466 188.28L669.534 198.492L630.329 183.394Z" fill="#EFF2FF"/>
<path d="M196.496 398.248V257.33H223.84V374.712H257.336V398.248H196.496ZM295.906 366.216L295.125 316.802H299.715L323.055 257.33H351.473L321.883 325.298L311.629 326.861L295.906 366.216ZM271.395 398.248V257.33H298.836V398.248H271.395ZM324.031 398.248L301.766 329.4L320.906 310.357L352.449 398.248H324.031ZM387.797 398.248V354.302L360.648 257.33H387.797L401.273 321.099H401.957L415.238 257.33H442.387L415.238 354.302V398.248H387.797ZM488.867 400.201C482.878 400.201 477.441 399.224 472.559 397.271C467.741 395.318 463.607 392.551 460.156 388.97C456.706 385.389 454.036 381.093 452.148 376.08C450.26 371.067 449.316 365.468 449.316 359.283V296.197C449.316 288.124 450.944 281.028 454.199 274.908C457.52 268.723 462.109 263.938 467.969 260.552C473.893 257.102 480.827 255.376 488.77 255.376C496.322 255.376 502.962 257.004 508.691 260.259C514.486 263.449 518.978 268.039 522.168 274.029C525.423 280.018 527.083 287.245 527.148 295.708V306.841H500.391V293.56C500.26 289.003 499.186 285.552 497.168 283.208C495.215 280.8 492.513 279.595 489.062 279.595C486.523 279.595 484.375 280.181 482.617 281.353C480.924 282.525 479.622 284.185 478.711 286.333C477.799 288.417 477.344 290.858 477.344 293.658V361.822C477.344 364.035 477.604 366.021 478.125 367.779C478.646 369.472 479.427 370.936 480.469 372.173C481.51 373.41 482.747 374.354 484.18 375.005C485.677 375.656 487.37 375.982 489.258 375.982C491.667 375.982 493.685 375.461 495.312 374.419C497.005 373.313 498.275 371.718 499.121 369.634C500.033 367.551 500.521 364.979 500.586 361.919V341.607H487.793V320.708H527.148V359.38C527.148 365.63 526.237 371.294 524.414 376.373C522.656 381.386 520.085 385.682 516.699 389.263C513.379 392.779 509.375 395.481 504.688 397.369C500 399.257 494.727 400.201 488.867 400.201ZM558.883 398.248V377.056H582.027C585.803 377.056 588.603 376.112 590.426 374.224C592.249 372.336 593.16 369.439 593.16 365.533V346.978C593.16 344.179 592.737 341.9 591.891 340.142C591.109 338.384 589.872 337.115 588.18 336.333C586.552 335.487 584.436 335.064 581.832 335.064H558.883V316.216H580.953C584.729 316.216 587.431 315.403 589.059 313.775C590.686 312.082 591.5 309.25 591.5 305.279V289.361C591.5 285.585 590.654 282.85 588.961 281.158C587.333 279.4 584.729 278.521 581.148 278.521H558.883V257.33H588.57C594.951 257.33 600.354 258.404 604.781 260.552C609.273 262.701 612.659 265.891 614.938 270.123C617.281 274.354 618.453 279.595 618.453 285.845V299.712C618.453 304.856 617.704 309.12 616.207 312.505C614.71 315.891 612.626 318.495 609.957 320.318C607.353 322.076 604.26 323.215 600.68 323.736V324.419C604.781 325.07 608.362 326.405 611.422 328.423C614.482 330.442 616.858 333.339 618.551 337.115C620.309 340.891 621.188 345.611 621.188 351.275V366.509C621.188 373.215 619.951 378.944 617.477 383.697C615.003 388.449 611.357 392.063 606.539 394.537C601.721 397.011 595.797 398.248 588.766 398.248H558.883ZM545.211 398.248V257.33H572.652V398.248H545.211ZM651.359 353.326V330.962H671.379C675.22 330.962 678.215 330.018 680.363 328.13C682.577 326.242 683.684 323.475 683.684 319.83V291.119C683.684 287.473 682.577 284.706 680.363 282.818C678.215 280.93 675.22 279.986 671.379 279.986H651.359V257.33H678.215C685.507 257.33 691.594 258.599 696.477 261.138C701.424 263.677 705.168 267.388 707.707 272.271C710.246 277.154 711.516 283.111 711.516 290.142V320.806C711.516 327.837 710.246 333.762 707.707 338.58C705.168 343.397 701.424 347.076 696.477 349.615C691.594 352.089 685.507 353.326 678.215 353.326H651.359ZM637.59 398.248V257.33H665.031V398.248H637.59ZM766.395 400.201C758.517 400.201 751.648 398.508 745.789 395.123C739.93 391.672 735.372 386.887 732.117 380.767C728.927 374.647 727.332 367.518 727.332 359.38V296.099C727.332 288.026 728.927 280.93 732.117 274.81C735.372 268.69 739.93 263.938 745.789 260.552C751.714 257.102 758.615 255.376 766.492 255.376C774.044 255.376 780.685 257.004 786.414 260.259C792.143 263.449 796.603 268.007 799.793 273.931C802.983 279.856 804.611 286.919 804.676 295.123L804.773 311.724H778.016V292.974C777.951 290.305 777.462 287.961 776.551 285.943C775.704 283.925 774.467 282.362 772.84 281.255C771.212 280.149 769.227 279.595 766.883 279.595C764.409 279.595 762.293 280.214 760.535 281.451C758.842 282.623 757.54 284.25 756.629 286.333C755.717 288.417 755.262 290.826 755.262 293.56V362.017C755.262 364.751 755.717 367.193 756.629 369.341C757.54 371.425 758.842 373.052 760.535 374.224C762.293 375.396 764.409 375.982 766.883 375.982C769.161 375.982 771.115 375.461 772.742 374.419C774.435 373.313 775.704 371.75 776.551 369.732C777.462 367.714 777.951 365.337 778.016 362.603V343.853H804.773V360.455C804.643 368.593 802.983 375.656 799.793 381.646C796.603 387.57 792.143 392.16 786.414 395.416C780.75 398.606 774.077 400.201 766.395 400.201Z" fill="white"/>
<path d="M218.238 475.247V435.394H218.033L205.455 443.939V434.779L218.204 425.926H228.458V475.247H218.238ZM250.732 475.247V468.172L268.163 451.868C270.305 449.886 271.923 448.234 273.017 446.912C274.111 445.591 274.851 444.406 275.239 443.358C275.649 442.309 275.854 441.216 275.854 440.076V440.008C275.854 438.664 275.535 437.479 274.897 436.453C274.259 435.405 273.37 434.585 272.231 433.992C271.114 433.4 269.827 433.104 268.369 433.104C266.682 433.104 265.201 433.446 263.925 434.129C262.649 434.79 261.647 435.713 260.917 436.898C260.188 438.06 259.801 439.381 259.755 440.863L259.721 441.17H250.151V440.897C250.151 437.798 250.937 435.063 252.509 432.694C254.081 430.301 256.235 428.433 258.969 427.088C261.726 425.744 264.837 425.072 268.3 425.072C271.787 425.072 274.851 425.687 277.495 426.917C280.138 428.125 282.2 429.811 283.681 431.976C285.162 434.141 285.903 436.624 285.903 439.427V439.495C285.903 441.478 285.538 443.323 284.809 445.032C284.103 446.719 282.929 448.519 281.288 450.433C279.648 452.324 277.403 454.58 274.555 457.2L260.268 470.223L264.233 463.284V470.223L260.302 467.044H286.586V475.247H250.732ZM316.585 475.247V434.437H302.332V425.926H341.195V434.437H326.907V475.247H316.585ZM358.103 475.247V425.926H368.425V445.955H390.642V425.926H400.964V475.247H390.642V454.466H368.425V475.247H358.103ZM445.444 475.247V425.926H478.12V434.437H455.766V446.263H476.855V454.329H455.766V466.737H478.12V475.247H445.444ZM496.771 475.247V425.926H515.604C520.549 425.926 524.764 426.872 528.25 428.763C531.76 430.654 534.448 433.423 536.317 437.069C538.185 440.692 539.12 445.112 539.12 450.33V450.399C539.12 455.617 538.185 460.083 536.317 463.797C534.471 467.511 531.794 470.348 528.285 472.308C524.775 474.267 520.549 475.247 515.604 475.247H496.771ZM507.093 466.702H514.373C517.45 466.702 520.047 466.087 522.166 464.857C524.286 463.626 525.881 461.803 526.952 459.388C528.045 456.973 528.592 453.988 528.592 450.433V450.365C528.592 446.924 528.034 444.018 526.917 441.649C525.824 439.279 524.217 437.49 522.098 436.282C519.979 435.052 517.404 434.437 514.373 434.437H507.093V466.702ZM556.985 475.247V425.926H567.307V475.247H556.985ZM598.502 475.247V434.437H584.249V425.926H623.111V434.437H608.824V475.247H598.502ZM640.019 475.247V425.926H650.342V475.247H640.019ZM691.996 476.102C687.119 476.102 682.893 475.065 679.315 472.991C675.76 470.918 673.015 467.978 671.078 464.173C669.164 460.345 668.207 455.822 668.207 450.604V450.535C668.207 445.295 669.175 440.771 671.112 436.966C673.049 433.161 675.795 430.233 679.349 428.182C682.927 426.108 687.142 425.072 691.996 425.072C696.872 425.072 701.088 426.108 704.642 428.182C708.197 430.255 710.943 433.195 712.88 437C714.816 440.783 715.785 445.295 715.785 450.535V450.604C715.785 455.822 714.816 460.345 712.88 464.173C710.943 467.978 708.197 470.918 704.642 472.991C701.11 475.065 696.895 476.102 691.996 476.102ZM691.996 467.352C694.73 467.352 697.089 466.668 699.071 465.301C701.053 463.911 702.58 461.963 703.651 459.456C704.722 456.95 705.257 453.999 705.257 450.604V450.535C705.257 447.095 704.711 444.132 703.617 441.649C702.546 439.142 701.008 437.217 699.003 435.872C697.02 434.505 694.685 433.822 691.996 433.822C689.307 433.822 686.96 434.494 684.955 435.838C682.972 437.183 681.434 439.108 680.34 441.615C679.269 444.098 678.734 447.072 678.734 450.535V450.604C678.734 454.022 679.269 456.984 680.34 459.49C681.434 461.997 682.972 463.934 684.955 465.301C686.937 466.668 689.284 467.352 691.996 467.352ZM733.65 475.247V425.926H742.673L769.504 464.515L760.857 457.987H765.163V425.926H775.452V475.247H766.496L739.631 436.419L748.279 442.948H743.938V475.247H733.65Z" fill="white"/>
<defs>
<filter id="filter0_n_9_40" x="62" y="35.2466" width="877" height="675" filterUnits="userSpaceOnUse" color-interpolation-filters="sRGB">
<feFlood flood-opacity="0" result="BackgroundImageFix"/>
<feBlend mode="normal" in="SourceGraphic" in2="BackgroundImageFix" result="shape"/>
<feTurbulence type="fractalNoise" baseFrequency="0.3571428656578064 0.3571428656578064" stitchTiles="stitch" numOctaves="3" result="noise" seed="9577" />
<feComponentTransfer in="noise" result="coloredNoise1">
<feFuncR type="linear" slope="2" intercept="-0.5" />
<feFuncG type="linear" slope="2" intercept="-0.5" />
<feFuncB type="linear" slope="2" intercept="-0.5" />
<feFuncA type="discrete" tableValues="1 1 1 1 1 1 1 1 1 1 1 1 1 1 1 1 1 1 1 1 1 1 1 1 1 1 1 1 1 1 1 1 1 1 1 1 1 1 1 1 1 1 1 1 1 1 1 1 1 1 1 0 0 0 0 0 0 0 0 0 0 0 0 0 0 0 0 0 0 0 0 0 0 0 0 0 0 0 0 0 0 0 0 0 0 0 0 0 0 0 0 0 0 0 0 0 0 0 0 0 "/>
</feComponentTransfer>
<feComposite operator="in" in2="shape" in="coloredNoise1" result="noise1Clipped" />
<feComponentTransfer in="noise1Clipped" result="color1">
<feFuncA type="table" tableValues="0 0.24" />
</feComponentTransfer>
<feMerge result="effect1_noise_9_40">
<feMergeNode in="shape" />
<feMergeNode in="color1" />
</feMerge>
</filter>
</defs>
</svg>
